<svg width="123" height="120" viewBox="0 0 123 120" fill="none" xmlns="http://www.w3.org/2000/svg">
<g clip-path="url(#clip0_223_326)">
<path d="M55.9671 50.8201L50.3226 60.2985C50.1271 60.6269 49.8698 60.9141 49.5648 61.1444C48.6903 61.8049 48.2533 62.8951 48.4295 63.9767L48.6985 65.6285H103.662C105.588 65.6285 107.15 64.067 107.15 62.1408V19.5299C107.15 17.6037 105.588 16.0422 103.662 16.0422H76.6917C76.0785 16.0422 75.6337 16.626 75.7964 17.2173C75.8564 17.4355 75.8347 17.6681 75.7353 17.8715L73.6075 22.2246L69.91 31.6557C69.4833 32.7439 68.5284 33.5372 67.3804 33.7572L66.8079 33.867C64.9686 34.2195 63.9251 36.1809 64.6607 37.9033C65.1666 39.088 64.8411 40.4641 63.8581 41.2966L60.4354 44.1953C60.1746 44.4161 59.9478 44.6741 59.762 44.9608L55.9671 50.8201Z" fill="#DF2935"/>
<path d="M67.0391 30.8518L72.6801 21.3734C72.8755 21.045 73.1328 20.7577 73.4376 20.5273C74.3116 19.8669 74.7483 18.7771 74.5723 17.696L74.3033 16.0434H19.3756C17.4494 16.0434 15.8879 17.6049 15.8879 19.5311V62.1419C15.8879 64.0681 17.4494 65.6296 19.3756 65.6296H48.178C48.5639 65.6296 48.8047 65.2114 48.611 64.8777C48.5325 64.7425 48.5217 64.5783 48.5817 64.434L50.126 60.7225C50.1912 60.5656 50.2679 60.4137 50.3553 60.2679L55.3689 51.9117C55.4983 51.696 55.6507 51.4949 55.8233 51.312L59.3818 47.542C59.6461 47.262 59.8622 46.9402 60.0213 46.5896L62.0154 42.1965C62.1422 41.9172 62.2315 41.6224 62.2812 41.3197L62.8486 37.8623C62.9264 37.3882 63.1013 36.9353 63.3624 36.532L67.0391 30.8518Z" fill="#0AC9BA"/>
<path fill-rule="evenodd" clip-rule="evenodd" d="M122.317 0H0.683273V4.37524H9.22387C9.70542 4.37524 10.0958 4.76562 10.0958 5.24717V10.7954C10.0958 11.277 9.70542 11.6673 9.22387 11.6673H0.683273V16.0422H6.60806C8.53426 16.0422 10.0958 17.6037 10.0958 19.5299V62.1408C10.0958 64.067 8.53426 65.6285 6.60806 65.6285H0.683273V70.0046H9.22387C9.70542 70.0046 10.0958 70.395 10.0958 70.8766V76.4248C10.0958 76.9064 9.70542 77.2967 9.22387 77.2967H0.683273V81.6715H122.317V77.2967H113.778C113.296 77.2967 112.906 76.9064 112.906 76.4248V70.8766C112.906 70.395 113.296 70.0046 113.778 70.0046H122.317V65.6285H116.393C114.467 65.6285 112.906 64.067 112.906 62.1408V19.5299C112.906 17.6037 114.467 16.0422 116.393 16.0422H122.317V11.6673H113.778C113.296 11.6673 112.906 11.277 112.906 10.7954V5.24717C112.906 4.76562 113.296 4.37524 113.778 4.37524H122.317V0ZM16.7607 4.37524C16.2791 4.37524 15.8888 4.76562 15.8888 5.24717V10.7954C15.8888 11.277 16.2791 11.6673 16.7607 11.6673H28.6282C29.1098 11.6673 29.5001 11.277 29.5001 10.7954V5.24717C29.5001 4.76562 29.1098 4.37524 28.6282 4.37524H16.7607ZM35.2919 5.24717C35.2919 4.76562 35.6823 4.37524 36.1638 4.37524H48.0314C48.5129 4.37524 48.9033 4.76562 48.9033 5.24717V10.7954C48.9033 11.277 48.5129 11.6673 48.0314 11.6673H36.1638C35.6823 11.6673 35.2919 11.277 35.2919 10.7954V5.24717ZM55.567 4.37524C55.0854 4.37524 54.6951 4.76562 54.6951 5.24717V10.7954C54.6951 11.277 55.0854 11.6673 55.567 11.6673H67.4345C67.9161 11.6673 68.3064 11.277 68.3064 10.7954V5.24717C68.3064 4.76562 67.9161 4.37524 67.4345 4.37524H55.567ZM74.0982 5.24717C74.0982 4.76562 74.4886 4.37524 74.9702 4.37524H86.8377C87.3192 4.37524 87.7096 4.76562 87.7096 5.24717V10.7954C87.7096 11.277 87.3192 11.6673 86.8377 11.6673H74.9702C74.4886 11.6673 74.0982 11.277 74.0982 10.7954V5.24717ZM94.3733 4.37524C93.8917 4.37524 93.5014 4.76562 93.5014 5.24717V10.7954C93.5014 11.277 93.8917 11.6673 94.3733 11.6673H106.241C106.722 11.6673 107.113 11.277 107.113 10.7954V5.24717C107.113 4.76562 106.722 4.37524 106.241 4.37524H94.3733ZM15.8888 19.5299C15.8888 17.6037 17.4503 16.0422 19.3765 16.0422H103.626C105.552 16.0422 107.114 17.6037 107.114 19.5299V62.1408C107.114 64.067 105.552 65.6285 103.626 65.6285H19.3765C17.4503 65.6285 15.8888 64.067 15.8888 62.1408V19.5299ZM16.7607 70.0046C16.2791 70.0046 15.8888 70.395 15.8888 70.8766V76.4248C15.8888 76.9064 16.2791 77.2967 16.7607 77.2967H28.6282C29.1098 77.2967 29.5001 76.9064 29.5001 76.4248V70.8766C29.5001 70.395 29.1098 70.0046 28.6282 70.0046H16.7607ZM35.2919 70.8766C35.2919 70.395 35.6823 70.0046 36.1638 70.0046H48.0314C48.5129 70.0046 48.9033 70.395 48.9033 70.8766V76.4248C48.9033 76.9064 48.5129 77.2967 48.0314 77.2967H36.1638C35.6823 77.2967 35.2919 76.9064 35.2919 76.4248V70.8766ZM55.567 70.0046C55.0854 70.0046 54.6951 70.395 54.6951 70.8766V76.4248C54.6951 76.9064 55.0854 77.2967 55.567 77.2967H67.4345C67.9161 77.2967 68.3064 76.9064 68.3064 76.4248V70.8766C68.3064 70.395 67.9161 70.0046 67.4345 70.0046H55.567ZM74.0982 70.8766C74.0982 70.395 74.4886 70.0046 74.9702 70.0046H86.8377C87.3192 70.0046 87.7096 70.395 87.7096 70.8766V76.4248C87.7096 76.9064 87.3192 77.2967 86.8377 77.2967H74.9702C74.4886 77.2967 74.0982 76.9064 74.0982 76.4248V70.8766ZM94.3733 70.0046C93.8917 70.0046 93.5014 70.395 93.5014 70.8766V76.4248C93.5014 76.9064 93.8917 77.2967 94.3733 77.2967H106.241C106.722 77.2967 107.113 76.9064 107.113 76.4248V70.8766C107.113 70.395 106.722 70.0046 106.241 70.0046H94.3733Z" fill="white"/>
<path fill-rule="evenodd" clip-rule="evenodd" d="M61.7086 46.7287C61.7086 46.7287 62.5698 46.5423 62.947 46.1192C63.3241 45.6961 64.712 44.1193 65.1675 43.4885C65.6231 42.8577 65.7938 42.4133 65.7938 42.4133C65.7938 42.4133 65.8081 42.4562 67.4734 42.4562C69.1388 42.4562 70.2208 42.3704 70.2208 42.3704C71.6035 41.3907 74.2775 41.7772 75.0892 42.3562C75.0892 42.3562 73.922 41.9405 73.0536 41.9117C72.1853 41.883 70.6907 42.0262 69.922 42.7145C69.1532 43.4027 67.0181 45.1523 66.0644 45.6534C65.1107 46.1546 63.9725 46.7001 63.9725 46.7001C63.9725 46.7001 63.5597 46.3847 63.1184 46.4923C62.6771 46.5998 62.7271 46.4851 61.7094 46.7285M73.8938 16.5964C73.4568 16.9466 73.1225 17.6403 72.8056 18.1233C72.8048 18.1233 72.9187 16.8759 73.8938 16.5964ZM70.0475 21.5853C70.0475 21.5853 70.6004 21.5367 70.764 21.591C71.0194 21.4332 71.681 20.9789 71.9513 20.3953C72.3498 19.5351 72.4352 18.9043 72.4352 18.9043C72.5088 19.1072 72.566 19.3158 72.6061 19.528C72.6703 19.8721 72.7341 19.8793 72.8339 20.1015C72.9337 20.3237 73.1116 20.3953 73.1116 20.3953C73.1116 20.3953 72.6487 21.0477 72.3072 21.3489C71.9658 21.6501 71.6205 21.9667 70.7713 21.7716C70.5972 21.6184 70.0467 21.5857 70.0467 21.5857L70.0475 21.5853ZM46.4535 58.5879C46.4535 58.5879 45.8555 58.6166 46.3822 60.1793C46.9089 61.7419 47.1937 63.1327 47.264 63.8643C47.3344 64.5958 47.6768 65.1546 48.0613 65.6994C48.4457 66.2442 48.9011 66.4449 49.0718 66.4305C49.2426 66.4162 49.3707 66.4305 49.442 66.1869C49.5133 65.9434 49.3139 65.3267 49.3424 64.6816C49.3709 64.0364 49.642 63.3344 49.642 63.3344L50.1403 61.6569C50.1403 61.6569 50.3182 61.6928 50.4321 61.4777C50.546 61.2627 50.7098 60.9183 50.546 60.8541C50.3822 60.7898 50.3111 60.7609 50.3111 60.7609C50.3111 60.7609 51.4579 58.9175 52.2543 57.9864C53.0508 57.0553 55.8841 53.9866 56.3395 53.1549C56.7949 52.3232 57.1936 52.0222 58.0762 51.3771C58.9588 50.7319 59.4427 50.3592 59.8269 49.7284C60.2112 49.0977 61.0227 47.9649 61.0227 47.9649C61.0227 47.9649 61.6632 49.3698 61.834 50.1727C62.0047 50.9757 62.1904 51.9935 62.6595 52.8681C63.1286 53.7426 63.8416 54.3016 64.3106 54.5454C64.7797 54.7892 64.9938 54.7461 65.1219 54.5597C65.2501 54.3734 65.3925 54.2444 65.2215 53.7568C65.0506 53.2693 65.0508 53.0257 65.0651 52.2229C65.0793 51.4201 65.1362 50.8466 65.3354 50.2009C65.5347 49.5552 65.9475 49.1543 65.8045 49.0253C65.6615 48.8962 65.5482 48.882 65.2636 48.9249C64.9789 48.9678 64.2814 48.3801 64.2814 48.3801C64.2814 48.3801 64.8863 48.7528 65.2848 48.76C65.6833 48.7671 65.8756 48.7171 65.8756 48.7171C65.8756 48.7171 66.8513 47.8139 68.9287 47.2117C71.0061 46.6094 73.1422 45.6632 73.8257 45.3191C74.5092 44.975 75.2207 44.9179 76.0177 44.4309C76.8148 43.944 77.6974 43.1692 77.5551 41.965C77.4129 40.7609 77.5837 40.56 75.1348 39.0975C72.6859 37.6351 71.377 37.2626 70.4374 36.861C69.4977 36.4595 66.7787 35.9577 66.7787 35.9577C66.7787 35.9577 67.9033 35.9721 68.3588 36.0724C68.8144 36.1728 69.2983 36.3449 69.2983 36.3449C69.2983 36.3449 70.5651 34.5671 70.9922 34.1944C71.4192 33.8218 72.2448 33.3629 72.8713 32.646C73.7657 31.6223 74.8432 31.0964 75.1772 29.9365C75.4618 28.9472 75.1912 28.2877 76.1449 27.7428C77.0987 27.198 77.5827 27.1551 77.5827 27.1551C77.5827 27.1551 76.9707 27.3987 76.693 27.5709C76.4153 27.743 76.2889 27.864 76.2889 27.864C76.2889 27.864 76.9508 28.9967 78.8297 30.8309C80.7086 32.665 81.3626 33.0961 81.5343 33.2686C81.706 33.4412 82.118 33.6844 82.7164 33.6987C83.3147 33.7131 83.3284 33.6844 83.4993 33.3831C83.6703 33.0819 83.9406 32.2075 84.0117 31.8492C84.0828 31.491 84.0545 28.652 84.0545 27.3904C84.0545 26.1288 84.1613 24.9676 84.147 24.6953C84.1328 24.4229 84.1896 24.3298 84.1896 24.3298C84.1896 24.3298 84.4885 23.0895 84.4457 22.3584C84.4029 21.6273 84.2465 21.2257 84.0329 20.6667C83.8194 20.1077 83.7978 19.9675 83.6342 20.018C83.4706 20.0684 83.4918 20.1039 83.4918 20.1039C83.4918 20.1039 83.3993 19.5771 83.2747 19.5017C83.1502 19.4263 83.0789 19.4408 83.061 19.5232C83.0432 19.6056 83.0327 19.6918 83.0327 19.6918C83.0327 19.6918 82.9438 19.3297 82.8049 19.3836C82.6661 19.4374 82.6518 19.6092 82.6518 19.6092C82.6518 19.6092 82.5593 19.4624 82.4668 19.5268C82.3743 19.5913 82.3167 19.6523 82.4668 20.0182C82.6169 20.384 82.8511 21.0008 82.8865 21.2297C82.922 21.4585 83.0715 21.9754 82.9505 22.1689C82.8295 22.3624 82.794 22.4914 82.7869 22.5343C82.7798 22.5772 82.8545 22.3983 82.8047 22.2656C82.755 22.133 82.7939 21.6564 82.7513 21.3266C82.7087 20.9969 82.6871 20.7674 82.5092 20.6312C82.3314 20.4949 82.189 20.3874 82.1961 20.5811C82.2032 20.7748 82.2813 21.477 82.2315 21.8283C82.1818 22.1796 82.0178 22.6383 82.1602 23.3122C82.3027 23.986 82.3809 24.065 82.5445 24.2013C82.7081 24.3375 83.0569 24.316 83.0569 24.316C83.0569 24.316 82.943 24.3088 82.7224 24.4092C82.5017 24.5095 82.5372 24.4594 82.58 25.2911C82.6227 26.1228 82.3664 28.1869 82.1246 28.9324C81.8827 29.6779 81.7118 30.3375 81.7259 30.7821C81.74 31.2268 81.8683 31.7856 81.8683 31.7856C81.8683 31.7856 81.5979 31.0616 81.5623 30.6961C81.5266 30.3307 81.6762 29.8357 81.6762 29.8357C81.6762 29.8357 80.8647 28.7964 80.0675 28.0078C79.2702 27.2192 79.5984 27.5061 79.2419 26.7175C78.8854 25.9289 78.7863 25.3124 77.8041 24.8536C76.8219 24.3948 76.5799 24.0938 75.9536 23.9934C75.3273 23.8931 75.0425 23.6635 75.0425 23.6635C75.0425 23.6635 74.8289 23.6635 74.5227 24.0363C74.2165 24.4092 73.7754 25.0541 73.7754 25.0541C73.7754 25.0541 74.1527 24.1795 74.4445 23.8857C74.7363 23.5918 75.6686 23.3768 75.6686 23.3768C75.5814 23.2249 75.456 23.0988 75.3051 23.0111C75.056 22.8679 74.6788 22.6885 74.6788 22.6885C74.6788 22.6885 75.2625 22.7532 75.5044 22.9754C75.7462 23.1976 75.9457 23.5703 75.9457 23.5703C75.9457 23.5703 76.2446 23.7423 76.572 23.9431C76.8994 24.144 77.2694 24.1939 77.3904 23.9717C77.5114 23.7494 77.369 23.6277 77.49 23.513C77.6111 23.3983 77.988 23.3696 77.9525 23.212C77.9171 23.0544 77.867 23.0329 77.867 23.0329C77.867 23.0329 78.109 22.8681 78.1587 22.7103C78.2085 22.5525 78.173 22.3303 78.173 22.3303C78.173 22.3303 78.422 22.2802 78.5999 22.3089C78.7777 22.3376 78.9629 22.3015 78.7636 21.8932C78.5644 21.4848 78.5291 21.1554 78.6074 21.083C78.6856 21.0106 79.2337 20.6886 79.2976 20.4736C79.3616 20.2585 79.6678 19.7642 79.5325 19.1697C79.3973 18.5752 79.3333 18.4098 79.3333 18.4098L79.5325 18.4665C79.5325 18.4665 79.5537 17.47 78.7424 16.6671C77.9311 15.8641 77.4043 15.5775 76.6499 15.4199C75.8954 15.2622 75.6676 15.3917 75.6676 15.3917C75.6676 15.3917 75.6391 15.1623 75.2689 15.3488C74.8987 15.5353 74.4434 16.0081 74.4434 16.0081C74.4434 16.0081 73.6321 14.8321 72.3219 15.3917C71.0117 15.9512 70.258 17.0114 69.8882 17.5706C69.5184 18.1297 69.2904 18.5168 69.2904 18.5168C69.2904 18.5168 69.8383 17.6781 70.0163 17.4918C70.1944 17.3054 70.607 17.076 70.607 17.076C70.607 17.076 69.7173 18.5455 68.9202 19.3197C68.1232 20.0939 67.6961 21.0394 67.6961 21.0394C67.6961 21.0394 68.0448 21.0394 68.5003 21.2113C68.9559 21.3833 69.2761 21.8852 69.2761 21.8852C69.2761 21.8852 68.9273 21.5126 68.4007 21.3476C67.874 21.1826 67.3971 21.0108 67.0413 20.9965C66.6856 20.9821 66.2938 20.9749 66.2938 20.9749C66.2938 20.9749 65.0696 20.3441 64.1586 20.1291C63.2477 19.914 62.9766 19.7133 61.9238 19.4839C60.8711 19.2545 60.8846 18.982 60.1729 19.5986C59.4612 20.2153 57.8101 21.9935 56.9986 23.442C56.1872 24.8905 55.689 25.4062 55.3331 25.6069C54.9772 25.8076 54.7496 26.2091 54.6499 26.3739C54.5503 26.5387 54.0664 26.8902 53.8244 27.0693C53.5823 27.2485 53.3655 27.5138 53.4116 27.6106C53.4578 27.7073 53.5219 27.7289 53.7355 27.5818C53.949 27.4348 54.3974 27.1661 54.5077 27.0873C54.618 27.0085 54.7355 26.9654 54.7496 27.0945C54.7636 27.2235 54.5008 27.7684 54.3334 28.0084C54.1661 28.2483 54.0064 28.5783 53.9781 28.6427C53.9497 28.7072 53.9103 28.8436 54.0385 28.9073C54.1666 28.971 54.2841 28.9109 54.4334 28.6528C54.5828 28.3946 54.7291 28.1295 54.7788 28.0543C54.8286 27.9791 54.8999 27.9611 54.8856 28.0758C54.8514 28.3548 54.7808 28.628 54.6756 28.8884C54.5192 29.2828 54.3268 29.4406 54.391 29.5697C54.4552 29.6987 54.6261 29.7416 54.7543 29.4691C54.8824 29.1966 55.1528 28.5445 55.1528 28.5445C55.1528 28.5445 54.9 29.3193 54.8004 29.4729C54.7008 29.6265 54.5377 29.6772 54.5835 29.7883C54.6293 29.8994 54.701 29.9244 54.7935 29.8639C54.886 29.8034 55.2952 29.509 55.5232 29.0575C55.7511 28.6061 55.9074 28.2827 56.0498 28.0749C56.1922 27.867 56.3275 27.8345 56.3275 27.8345C56.3275 27.8345 56.2065 28.2397 56.3275 28.6698C56.4485 29.0999 56.5902 29.2002 56.7048 29.0999C56.8195 28.9995 56.7403 28.9351 56.7476 28.5766C56.7549 28.2181 56.7975 27.8018 56.89 27.7162C56.9825 27.6306 57.0182 27.1644 56.9463 26.7127C56.8744 26.2611 56.9035 26.0963 56.9035 26.0963C56.9035 26.0963 57.6154 24.9636 58.3556 24.419C59.0957 23.8744 60.0354 23.0425 60.4054 22.6124C60.7754 22.1823 60.8894 21.7522 61.5726 22.211C62.2557 22.6698 63.2522 22.9565 63.993 23.3292C64.7337 23.7018 65.0606 23.8453 65.6156 24.003C66.1706 24.1608 67.4592 24.0246 67.4592 24.0246C67.4592 24.0246 66.9537 24.0813 66.6051 24.1537C66.2565 24.226 66.2486 24.3759 66.2486 24.3759C66.2486 24.3759 66.2058 26.4045 66.0492 27.4798C65.8925 28.5551 65.5377 31.2088 65.0253 31.6675C64.5129 32.1261 62.8045 32.786 61.7231 33.9329C60.6416 35.0798 60.029 36.0259 59.8583 36.9578C59.6875 37.8896 59.7586 38.4059 60.0147 39.1372C60.2708 39.8685 60.2568 39.8825 60.7622 40.4704C61.2677 41.0583 61.9295 41.3019 61.9295 41.3019C61.9295 41.3019 61.1602 41.051 60.7474 40.7282C60.3346 40.4054 60.2564 40.2837 60.2564 40.2837C60.2564 40.2837 58.0786 42.7782 57.4232 44.585C56.7679 46.3917 56.6262 48.7424 54.5764 50.1765C52.5266 51.6106 51.5881 53.3594 51.104 54.7928C50.6199 56.2261 49.709 57.7175 49.339 58.0329C48.969 58.3483 48.8834 58.549 48.8834 58.549C48.8834 58.549 49.0399 58.5705 49.0399 59.015C49.0399 59.4595 48.8549 59.5883 49.1255 59.9612C49.3011 60.1976 49.5069 60.4097 49.7375 60.592C49.7375 60.592 49.1688 60.2197 48.9624 59.8899C48.756 59.5602 48.927 59.2805 48.9127 59.0726C48.8984 58.8648 48.7418 58.4203 48.386 58.32C48.0303 58.2196 47.8663 58.2771 47.5888 58.3766C47.3113 58.4762 47.0543 58.4275 46.4535 58.5879Z" fill="white"/>
<path fill-rule="evenodd" clip-rule="evenodd" d="M55.2563 24.6074L48.7556 24.4498L55.4698 24.2867C55.3948 24.4029 55.3241 24.5095 55.2561 24.6079M56.9924 21.9464L45.2981 21.6161L57.5454 21.2703C57.3596 21.488 57.1735 21.7151 56.9924 21.9464ZM62.661 32.4844L51.3306 32.1646L63.8115 31.812C63.5378 31.9993 63.1231 32.2185 62.6617 32.4844H62.661ZM61.0024 33.6354L55.9263 33.5122L61.3037 33.3822C61.2011 33.4632 61.1014 33.5477 61.0031 33.6354H61.0024ZM64.3393 31.0138L52.4691 30.6787L64.5292 30.3386C64.4701 30.5854 64.407 30.8146 64.34 31.0138H64.3393ZM59.1783 35.9594L48.2021 35.6495L59.5503 35.3282C59.4134 35.5304 59.2893 35.7413 59.179 35.9594H59.1783ZM58.7452 37.6364L46.2681 37.2839L58.839 36.9288L58.8334 36.9579C58.7905 37.1821 58.7613 37.4086 58.746 37.6364H58.7452ZM57.7964 42.122L46.4428 41.7851L58.3039 41.4325C58.1424 41.6449 57.9705 41.8771 57.7972 42.122H57.7964ZM56.5279 44.2623L43.6004 43.9507L56.8393 43.6315C56.7241 43.8451 56.6185 44.0567 56.5286 44.2623H56.5279ZM55.9423 46.103L46.3891 45.8206L56.101 45.5332C56.0481 45.721 55.9961 45.9111 55.943 46.103H55.9423ZM55.0443 48.5101L42.0619 48.2266L55.3293 47.9364C55.2445 48.1303 55.1503 48.3223 55.0451 48.5101H55.0443ZM52.0787 51.4392L40.2828 51.1518L52.6926 50.8494C52.4723 51.0429 52.2679 51.2394 52.0794 51.4388L52.0787 51.4392ZM50.2034 54.4439L38.5488 54.1406L50.4606 53.8314C50.3647 54.0391 50.2797 54.2436 50.2041 54.4433L50.2034 54.4439ZM49.1611 56.8181L42.763 56.5375L49.4656 56.2433C49.3664 56.4444 49.2635 56.6373 49.1618 56.8176L49.1611 56.8181ZM55.9768 23.4359L44.1588 23.102L56.3997 22.7564C56.244 22.9869 56.1006 23.2154 55.9768 23.4359Z" fill="white"/>
</g>
<path d="M3.78884 106.787C1.99565 106.787 1.01229 105.804 1.01229 104.011V89.0865C1.01229 87.2933 1.99565 86.31 3.78884 86.31H7.37523C9.16842 86.31 10.1518 87.2933 10.1518 89.0865V94.5239H7.08601V89.5493C7.08601 89.2022 6.88355 89.0287 6.5654 89.0287H4.59867C4.2516 89.0287 4.07807 89.2022 4.07807 89.5493V103.548C4.07807 103.895 4.2516 104.068 4.59867 104.068H6.5654C6.88355 104.068 7.08601 103.895 7.08601 103.548V98.5731H10.1518V104.011C10.1518 105.804 9.16842 106.787 7.37523 106.787H3.78884ZM12.1138 106.671V86.4257H15.1796V103.953H19.489V106.671H12.1138ZM20.8978 106.671V86.4257H28.302V89.1444H23.9636V95.0156H28.1285V97.7343H23.9636V103.953H28.4177V106.671H20.8978ZM32.19 106.671L29.1532 86.4257H32.219L34.3592 103.027L36.4995 86.4257H39.5653L36.5284 106.671H32.19ZM40.8103 106.671V86.4257H48.2144V89.1444H43.8761V95.0156H48.0409V97.7343H43.8761V103.953H48.3301V106.671H40.8103ZM49.9333 106.671V86.4257H56.2095C58.0027 86.4257 58.986 87.409 58.986 89.2022V95.9122C58.986 97.3005 58.4076 98.1971 57.3085 98.5153L59.3909 106.671H56.4408L54.4163 98.6888H52.9991V106.671H49.9333ZM52.9991 95.9701H55.3996C55.7467 95.9701 55.9202 95.7965 55.9202 95.4495V89.665C55.9202 89.3179 55.7467 89.1444 55.3996 89.1444H52.9991V95.9701ZM66.9087 106.787C65.2312 106.787 64.3057 105.862 64.3057 104.184V99.1515H67.3426V103.548C67.3426 103.895 67.5161 104.068 67.8632 104.068H69.8299C70.1481 104.068 70.3505 103.895 70.3505 103.548V99.7011C70.3505 99.4118 70.2638 99.2094 70.0034 99.0069L65.5205 95.7676C64.7106 95.1602 64.3636 94.4372 64.3636 93.4249V88.913C64.3636 87.2355 65.2891 86.31 66.9666 86.31H70.6687C72.3462 86.31 73.2717 87.2355 73.2717 88.913V93.6563H70.2927V89.5493C70.2927 89.2022 70.0902 89.0287 69.7721 89.0287H67.921C67.574 89.0287 67.4004 89.2022 67.4004 89.5493V92.9621C67.4004 93.2514 67.4872 93.4538 67.7475 93.6563L72.2016 96.8667C73.0403 97.474 73.3874 98.1682 73.3874 99.1805V104.184C73.3874 105.862 72.4619 106.787 70.7844 106.787H66.9087ZM74.5463 89.1444V86.4257H83.3387V89.1444H80.4754V106.671H77.4096V89.1444H74.5463ZM84.7589 106.671V86.4257H91.0351C92.8283 86.4257 93.8116 87.409 93.8116 89.2022V95.9122C93.8116 97.3005 93.2332 98.1971 92.1341 98.5153L94.2165 106.671H91.2664L89.2419 98.6888H87.8247V106.671H84.7589ZM87.8247 95.9701H90.2252C90.5723 95.9701 90.7458 95.7965 90.7458 95.4495V89.665C90.7458 89.3179 90.5723 89.1444 90.2252 89.1444H87.8247V95.9701ZM95.7743 106.671V86.4257H103.178V89.1444H98.8401V95.0156H103.005V97.7343H98.8401V103.953H103.294V106.671H95.7743ZM104.897 106.671V86.4257H112.301V89.1444H107.963V95.0156H112.128V97.7343H107.963V103.953H112.417V106.671H104.897ZM112.902 89.1444V86.4257H121.695V89.1444H118.832V106.671H115.766V89.1444H112.902Z" fill="white"/>
<path d="M35.9403 119.671V111.341H38.9871V112.459H37.2019V114.875H38.9156V115.994H37.2019V119.671H35.9403ZM47.4678 119.671V111.341H48.7293V119.671H47.4678ZM57.4495 119.671V111.341H58.711V118.553H60.4843V119.671H57.4495ZM68.9188 119.671V111.341H70.8468L71.668 117.422L72.4772 111.341H74.4528V119.671H73.1913V113.566L72.2987 119.671H71.0372L70.1446 113.566V119.671H68.9188ZM84.1771 119.719C83.4869 119.719 83.106 119.338 83.106 118.648V116.577H84.3557V118.386C84.3557 118.529 84.4271 118.6 84.5699 118.6H85.3792C85.5101 118.6 85.5934 118.529 85.5934 118.386V116.803C85.5934 116.684 85.5577 116.601 85.4506 116.518L83.6059 115.185C83.2727 114.935 83.1298 114.637 83.1298 114.221V112.364C83.1298 111.674 83.5107 111.293 84.201 111.293H85.7243C86.4146 111.293 86.7954 111.674 86.7954 112.364V114.316H85.5696V112.626C85.5696 112.483 85.4863 112.412 85.3554 112.412H84.5937C84.4509 112.412 84.3795 112.483 84.3795 112.626V114.03C84.3795 114.149 84.4152 114.233 84.5223 114.316L86.3551 115.637C86.7002 115.887 86.843 116.172 86.843 116.589V118.648C86.843 119.338 86.4622 119.719 85.7719 119.719H84.1771Z" fill="white"/>
<defs>
<clipPath id="clip0_223_326">
<rect width="121.633" height="81.6715" fill="white" transform="translate(0.683273)"/>
</clipPath>
</defs>
</svg>
